<?xml version="1.0" encoding="UTF-8"?>
<svg id="Layer_1" data-name="Layer 1" xmlns="http://www.w3.org/2000/svg" viewBox="0 0 211.55 230.49">
  <path d="M202.53,151.66l.47-72.53c5.19-2.6,8.51-7.89,8.55-13.75.05-8.54-6.85-15.53-15.39-15.59-.04,0-.07,0-.1,0-3.12,0-6.09.91-8.65,2.64L121.89,16.04c0-.15,0-.31,0-.46C121.96,7.05,115.05.06,106.51,0c-.03,0-.07,0-.1,0-8.49,0-15.43,6.88-15.49,15.39,0,.15,0,.3,0,.46L24.95,51.39c-2.57-1.79-5.56-2.73-8.71-2.75-.03,0-.07,0-.1,0-8.49,0-15.43,6.88-15.49,15.39-.04,5.86,3.22,11.19,8.37,13.86l-.47,72.53C3.36,153.01.04,158.3,0,164.15c-.03,4.14,1.56,8.04,4.46,10.98,2.91,2.94,6.79,4.58,10.92,4.61,3.1,0,6.08-.87,8.65-2.57l65.62,37.15c0,.19-.01.39-.01.58-.03,4.14,1.56,8.04,4.47,10.98,2.91,2.94,6.79,4.58,10.92,4.61.03,0,.07,0,.1,0,8.49,0,15.43-6.88,15.49-15.39,0-.19,0-.39,0-.58l66.09-36.3c2.54,1.74,5.5,2.66,8.61,2.68.03,0,.07,0,.1,0,8.49,0,15.43-6.88,15.49-15.39.04-5.86-3.22-11.19-8.37-13.86ZM179.93,165.9l-66.09,36.3c-.51-.35-1.04-.67-1.59-.95l.31-47.8c3.4-.89,7.88-2.69,11.83-6.34,4.06-3.75,6.15-7.6,7.38-10.58l48.19,28.03c-.01.26-.02.51-.02.76,0,.19,0,.39,0,.58ZM90.78,124.91c-1.2-4.76-2.69-10.69-6.81-17.7-3.9-6.65-5.35-8.28-14.08-15.86-5.93-5.15-10.54-8.2-23.28-16.33-4.98-3.18-10.02-6.37-15.06-9.54.04-.42.06-.85.06-1.27,0-.15,0-.3,0-.46L97.6,28.22c.54.37,1.09.71,1.67,1.01l-.35,54.9c-5.19,2.6-8.51,7.89-8.55,13.75-.03,4.14,1.56,8.04,4.47,10.98,2.91,2.94,6.79,4.58,10.92,4.61.03,0,.07,0,.1,0,8.49,0,15.43-6.88,15.49-15.39.04-5.83-3.19-11.15-8.31-13.83l.36-54.93c.58-.29,1.14-.62,1.68-.99l65.52,36.39c0,.15,0,.3,0,.45,0,.42.01.84.04,1.27-5.08,3.11-10.16,6.23-15.18,9.34-12.84,7.96-17.49,10.95-23.49,16.02-8.83,7.46-10.29,9.07-14.28,15.68-4.2,6.96-5.77,12.87-7.04,17.62-1.38,5.22-2.22,8.37-5.78,11.66-2.76,2.55-6.73,3.52-9.19,3.58-2.55-.09-6.5-1.11-9.23-3.7h0c-3.52-3.34-4.32-6.5-5.64-11.74ZM30.96,163.59l48.55-27.41c1.67,4.21,3.95,7.56,7.24,10.68,3.91,3.7,8.36,5.56,11.75,6.49l-.31,47.8c-.55.28-1.09.59-1.6.93l-65.62-37.15c0-.19.01-.39.01-.58,0-.25,0-.5-.01-.76ZM71.85,114.32c1.5,2.55,2.66,5.12,3.62,8l-51.42,29.03c-.47-.31-.95-.59-1.44-.85l.47-72.53c.35-.17.69-.36,1.02-.56,5.01,3.15,10.01,6.32,14.96,9.48,12.77,8.14,16.64,10.77,21.62,15.09,7.99,6.93,8.23,7.34,11.16,12.35ZM139.7,114.76c3-4.97,3.25-5.38,11.32-12.21,5.04-4.26,8.96-6.84,21.82-14.81,4.99-3.09,10.04-6.2,15.08-9.28.33.21.67.4,1.02.58l-.47,72.53c-.5.25-.99.53-1.45.83l-51.04-29.69c.99-2.87,2.19-5.42,3.72-7.96Z"/>
</svg>